<?xml version="1.0" ?><!DOCTYPE svg  PUBLIC '-//W3C//DTD SVG 1.1//EN'  'http://www.w3.org/Graphics/SVG/1.1/DTD/svg11.dtd'><svg xmlns="http://www.w3.org/2000/svg" xmlns:xlink="http://www.w3.org/1999/xlink"><symbol viewBox="0 0 512 512" id="back"><path d="M352 128.4L319.7 96 160 256l159.7 160 32.3-32.4L224.7 256"/></symbol><symbol viewBox="0 0 512 512" id="calendar"><path d="M448.9 64H416v40.7c0 22.5-23.2 39.3-47.2 39.3S320 127.2 320 104.7V64H192v40.7c0 22.5-24 39.3-48 39.3s-48-16.8-48-39.3V64H63.1C45.9 64 32 77.3 32 93.4v357.5C32 467 45.9 480 63.1 480h385.8c17.2 0 31.1-13 31.1-29.2V93.4c0-16.1-13.9-29.4-31.1-29.4zM432 419.9c0 6.6-5.8 12-12.8 12l-326.5.1c-7-.3-12.7-5.6-12.7-12.2V188.3c0-6.9 5.9-12.3 13.3-12.3h325.5c7.3 0 13.2 5.3 13.2 12.1v231.8z"/><path d="M176 96c0 17.7-14.3 32-32 32s-32-14.3-32-32V64c0-17.7 14.3-32 32-32s32 14.3 32 32v32zM400 96c0 17.7-14.3 32-32 32s-32-14.3-32-32V64c0-17.7 14.3-32 32-32s32 14.3 32 32v32z"/></symbol><symbol viewBox="0 0 32 32" id="close"><path d="M4 8l4-4 8 8 8-8 4 4-8 8 8 8-4 4-8-8-8 8-4-4 8-8z"/></symbol><symbol viewBox="0 0 50 50" id="down"><path fill="none" d="M0 0h50v50H0z"/><path d="M47.25 15l-2.086-2.086L25 33.078 4.836 12.914 2.75 15 25 37.25"/></symbol><symbol viewBox="0 0 48 48" id="left"><path d="M30.83 32.67l-9.17-9.17 9.17-9.17L28 11.5l-12 12 12 12z"/><path d="M0-.5h48v48H0z" fill="none"/></symbol><symbol viewBox="0 0 48 48" id="location"><path d="M24 4c-7.73 0-14 6.27-14 14 0 10.5 14 26 14 26s14-15.5 14-26c0-7.73-6.27-14-14-14zm0 19c-2.76 0-5-2.24-5-5s2.24-5 5-5 5 2.24 5 5-2.24 5-5 5z"/><path d="M0 0h48v48H0z" fill="none"/></symbol><symbol viewBox="52.953 107.636 752.815 220.589" id="logo"><path fill="#DE476F" d="M52.953 285.406c.113-5.312.425-10.63.946-15.935s1.21-10.607 2.185-15.873c1.957-10.524 4.845-20.954 9.025-30.974 4.21-9.993 9.798-19.53 16.84-28.028 7.027-8.496 15.543-15.902 25.11-21.612 9.54-5.753 20.028-9.9 30.766-12.586 5.337-1.368 10.855-2.355 16.01-3.245 1.27-.23 2.48-.45 3.345-.71 1.816-.493 3.432-.692 4.966-.842 3.068-.275 5.954-.27 8.825-.146 5.724.262 11.31 1.034 16.83 2.183 5.522 1.146 10.953 2.724 16.267 4.708 10.6 3.975 20.826 9.606 29.617 17.328 8.8 7.672 16.028 17.456 20.674 28.322l.43 1.02.207.513.104.257.05.128.17.475.666 1.958c.45 1.36.87 2.69 1.273 4.05.802 2.71 1.528 5.455 2.154 8.233 1.254 5.555 2.13 11.244 2.517 17.02.386 5.776.28 11.642-.43 17.487-.727 5.842-2.055 11.66-4.044 17.285-3.945 11.264-10.64 21.675-19.345 29.935-17.456 16.59-42.292 24.33-65.99 21.178-11.845-1.556-23.395-5.856-33.35-12.566-4.978-3.35-9.557-7.266-13.624-11.617-4.062-4.36-7.604-9.148-10.634-14.187l-.29-.483-.192-.427c-2.654-5.906-4.838-12.17-6.15-18.782-1.312-6.598-1.75-13.578-.81-20.518.908-6.934 3.187-13.75 6.6-19.82 3.41-6.085 7.87-11.42 12.938-15.905 2.536-2.25 5.234-4.28 8.1-6.108 1.435-.915 2.907-1.777 4.462-2.59.777-.406 1.577-.8 2.42-1.18l.647-.285.77-.318.568-.218.833-.296c3.875-1.267 7.368-1.69 10.863-1.89 3.48-.17 6.897-.013 10.28.43 6.757.887 13.437 2.915 19.573 6.394 6.125 3.443 11.615 8.497 15.386 14.61l-.555-.75c2.095 2.556 3.49 5.34 4.44 8.172.938 2.838 1.43 5.75 1.478 8.688.05 2.935-.336 5.9-1.223 8.79-.89 2.883-2.307 5.682-4.234 8.125-1.926 2.44-4.347 4.493-6.97 5.982-2.62 1.504-5.406 2.477-8.144 3.054-1.37.29-2.73.483-4.077.605l-1.062.083-1.08.042c-.76.013-1.515-.013-2.275-.074-3.05-.232-6.116-1.14-8.783-2.563-2.683-1.418-4.95-3.298-6.838-5.318-1.892-2.028-3.43-4.208-4.738-6.427-2.604-4.452-4.37-9.06-5.712-13.688-1.334-4.632-2.25-9.293-2.874-13.976-.61-4.687-.957-9.377-.883-14.168l.023-.9c0-.063.01.354.005.15v-.053l-.002-.106-.002-.21-.002-.42-.004-1.77c.006-1.217.043-2.377.096-3.562.11-2.356.307-4.698.578-7.02.544-4.65 1.38-9.23 2.43-13.73 2.117-9.004 5.01-17.74 8.58-26.15 3.548-8.418 7.628-16.567 12.163-24.43 4.604-7.822 9.58-15.41 15.157-22.517-4.705 7.705-8.98 15.63-12.722 23.787-3.796 8.124-7.13 16.44-9.885 24.916-2.722 8.48-5.015 17.07-6.4 25.756-.696 4.338-1.18 8.69-1.382 13.026-.103 2.167-.13 4.328-.08 6.48.025 1.066.067 2.16.136 3.197l.115 1.606.033.422.018.21.01.105.004.053.01.258.034.788c.45 8.466 2.096 17.147 4.858 25.067 1.403 3.946 3.1 7.738 5.235 10.966 2.117 3.226 4.715 5.815 7.416 7.03 1.353.615 2.72.93 4.173.96.36.008.734 0 1.102-.022l.607-.055.618-.08c.896-.123 1.76-.29 2.586-.504 3.326-.86 5.886-2.503 7.49-4.78 1.622-2.26 2.39-5.32 2.18-8.476-.105-1.564-.433-3.14-.97-4.56-.535-1.416-1.28-2.683-2.097-3.577l-.19-.21-.362-.54c-2.63-3.91-6.252-7.036-10.553-9.27-4.295-2.225-9.225-3.582-14.25-4.103-2.51-.26-5.052-.3-7.5-.106-2.422.188-4.86.635-6.612 1.288l-.682.276-.622.295c-.5.245-1.026.52-1.557.818-1.062.597-2.134 1.266-3.183 1.98-2.102 1.43-4.108 3.046-5.984 4.77-3.75 3.464-6.91 7.454-9.215 11.79-2.31 4.336-3.758 9.02-4.295 13.875-1.133 9.727 1.402 20.092 5.974 29.85l-.482-.91c4.968 8.056 11.444 14.988 19.13 20.113 7.68 5.13 16.55 8.404 25.753 9.584 9.197 1.186 18.707.376 27.595-2.433 8.892-2.78 17.133-7.537 23.87-13.845 6.765-6.285 11.97-14.156 15.145-22.893 3.195-8.735 4.408-18.278 3.95-27.91-.23-4.818-.88-9.664-1.873-14.48-.495-2.406-1.083-4.807-1.742-7.196-.33-1.188-.688-2.396-1.048-3.562l-.58-1.822-.512-1.305c-3.45-8.77-8.887-16.665-15.886-23.17-6.99-6.508-15.403-11.73-24.53-15.535-9.11-3.774-18.954-6.406-28.724-7.34-2.422-.223-4.855-.328-7.083-.233-1.108.05-2.143.15-2.9.31-1.71.397-3.13.56-4.478.744-5.345.66-10.32 1.312-15.328 2.34-9.95 2.02-19.614 5.228-28.547 9.956-8.916 4.73-17.114 10.88-24.12 18.31-7.03 7.414-12.852 16.04-17.553 25.3-4.75 9.246-8.372 19.145-11.107 29.313-2.794 10.16-4.682 20.607-6.057 31.143z"/><g fill="#FFF"><path d="M311.563 220.773h-9.09c-1.17 0-1.836.667-1.836 1.835v3.586h-9.592v-9.34c0-3.922 1.334-5.34 5.338-5.34h41.285c4.003 0 5.338 1.418 5.338 5.34v9.34h-9.59v-3.586c0-1.168-.668-1.835-1.836-1.835h-9.092v49.96h-10.926v-49.96zM347.265 239.038c0-1.25-.667-1.835-1.835-1.835h-3.336v-9.008h10.092c3.92 0 5.588 1.75 5.588 5.588v19.6c0 5.173 1.334 8.676 6.59 8.676 7.673 0 11.927-6.757 11.927-14.348v-19.517h10.593v31.777c0 1.167.667 1.835 1.835 1.835h3.336v8.924h-9.758c-3.67 0-5.588-1.75-5.588-4.753v-1.168c0-1.002.083-1.92.083-1.92h-.166c-2.002 4.42-7.34 8.842-14.68 8.842-9.09 0-14.68-4.587-14.68-16.182v-16.512zM400.647 239.038c0-1.25-.667-1.835-1.834-1.835h-3.336v-9.008h9.758c3.753 0 5.588 1.75 5.588 4.754v1.25c0 .918-.083 1.835-.083 1.835h.167c2.002-4.17 7.09-8.84 13.763-8.84 6.422 0 10.592 3.002 12.427 8.757h.167c2.252-4.588 7.757-8.758 14.513-8.758 8.84 0 13.93 5.004 13.93 16.18v16.6c0 1.167.666 1.835 1.833 1.835h3.255v8.923h-10.01c-4.004 0-5.672-1.668-5.672-5.672v-19.684c0-4.837-.917-8.507-5.84-8.507-5.253 0-9.007 4.42-10.174 9.758-.502 1.668-.668 3.42-.668 5.42v18.685H427.84v-25.355c0-4.587-.668-8.507-5.757-8.507-5.338 0-8.924 4.422-10.26 9.843-.416 1.668-.666 3.42-.666 5.338v18.685h-10.51v-31.697zM478.97 222.357c0-1.25-.668-1.835-1.836-1.835h-3.336v-9.007h10.092c3.92 0 5.672 1.75 5.672 5.67v12.345c0 2.085-.167 3.587-.167 3.587h.167s3.753-5.922 12.76-5.922c11.51 0 18.85 9.09 18.85 22.27 0 13.512-8.255 22.27-19.516 22.27-8.842 0-12.678-6.005-12.678-6.005h-.167s.168 1.167.168 2.835v2.17h-10.01v-48.378zm20.85 40.45c5.756 0 10.676-4.753 10.676-13.178 0-8.09-4.336-13.346-10.592-13.346-5.505 0-10.676 4.004-10.676 13.43 0 6.59 3.503 13.094 10.592 13.094zM529.933 222.357c0-1.25-.667-1.835-1.834-1.835h-3.337v-9.007h10.092c3.92 0 5.67 1.75 5.67 5.67v42.788c0 1.167.668 1.835 1.836 1.835h3.254v8.924h-10.01c-4.003 0-5.67-1.668-5.67-5.672v-42.703zM571.803 227.195c12.177 0 18.85 8.924 18.85 20.184 0 1.25-.25 3.92-.25 3.92h-29.357c.834 7.507 6.338 11.427 12.76 11.427 6.84 0 11.928-4.754 11.928-4.754l4.42 7.34s-6.505 6.422-17.098 6.422c-14.097 0-22.854-10.176-22.854-22.27 0-13.096 8.84-22.27 21.6-22.27zm8.007 16.764c-.166-5.09-3.67-8.592-8.007-8.592-5.42 0-9.258 3.253-10.425 8.59h18.432zM598.33 238.704c-.42-1.25-1.085-1.5-2.337-1.5h-1.168v-9.01h7.257c3.504 0 5.172 1.085 6.006 4.338l6.256 23.604c.584 2.252.834 4.504.834 4.504h.166s.334-2.252 1.002-4.504l7.84-27.773h9.34l7.924 27.773c.668 2.252.918 4.504.918 4.504h.167s.25-2.252.834-4.504l6.172-23.604c.834-3.253 2.502-4.337 6.005-4.337h7.256v9.008h-1.167c-1.25 0-1.835.25-2.335 1.5l-10.176 32.028h-11.927l-7.257-24.27c-.666-2.252-1-4.588-1-4.588h-.167s-.417 2.336-1.085 4.588l-7.172 24.27h-12.01l-10.177-32.026zM687.076 227.195c12.178 0 18.85 8.924 18.85 20.184 0 1.25-.25 3.92-.25 3.92H676.32c.833 7.507 6.337 11.427 12.76 11.427 6.84 0 11.928-4.754 11.928-4.754l4.42 7.34s-6.505 6.422-17.1 6.422c-14.095 0-22.852-10.176-22.852-22.27 0-13.096 8.84-22.27 21.6-22.27zm8.008 16.764c-.166-5.09-3.67-8.592-8.008-8.592-5.42 0-9.258 3.253-10.425 8.59h18.434zM733.536 227.195c12.178 0 18.85 8.924 18.85 20.184 0 1.25-.25 3.92-.25 3.92h-29.358c.834 7.507 6.34 11.427 12.76 11.427 6.842 0 11.93-4.754 11.93-4.754l4.42 7.34s-6.506 6.422-17.1 6.422c-14.095 0-22.852-10.176-22.852-22.27 0-13.096 8.84-22.27 21.6-22.27zm8.008 16.764c-.167-5.09-3.67-8.592-8.008-8.592-5.422 0-9.258 3.253-10.426 8.59h18.434zM777.743 227.195c9.26 0 12.262 5.17 12.262 5.17h.167s-.084-1.083-.084-2.5v-7.508c0-1.25-.667-1.835-1.835-1.835h-3.337v-9.007h10.093c3.92 0 5.67 1.75 5.67 5.67v42.788c0 1.167.668 1.835 1.836 1.835h3.253v8.924h-9.76c-3.836 0-5.254-1.835-5.254-4.337v-1.585h-.167s-3.504 6.923-13.264 6.923c-11.51 0-18.933-9.09-18.933-22.27 0-13.51 8.09-22.268 19.35-22.268zm12.596 22.185c0-6.59-3.42-13.095-10.512-13.095-5.838 0-10.676 4.754-10.676 13.178 0 8.092 4.254 13.346 10.51 13.346 5.504-.002 10.677-4.005 10.677-13.43z"/></g></symbol><symbol viewBox="0 0 48 48" id="right"><path d="M17.17 32.92l9.17-9.17-9.17-9.17L20 11.75l12 12-12 12z"/><path d="M0-.25h48v48H0z" fill="none"/></symbol><symbol viewBox="0 0 32 32" id="search"><path d="M12 0A12 12 0 0 0 0 12a12 12 0 0 0 12 12 12 12 0 0 0 6.5-1.75L28 32l4-4-9.75-9.5A12 12 0 0 0 24 12 12 12 0 0 0 12 0m0 4a8 8 0 0 1 0 16 8 8 0 0 1 0-16"/></symbol><symbol viewBox="-1.23 -8.789 141.732 141.732" id="star"><path fill="gold" d="M139.273 49.088c0-3.284-2.75-5.95-6.146-5.95-.22 0-.434.013-.646.032l-42.444-1-14.5-37.855C74.806 1.825 72.443 0 69.636 0c-2.808 0-5.167 1.824-5.9 4.315L49.23 42.17l-42.443 1c-.214-.02-.43-.03-.647-.03C2.75 43.135 0 45.8 0 49.087c0 2.1 1.12 3.938 2.812 4.997l33.807 23.9-12.064 37.494c-.438.812-.688 1.74-.688 2.722 0 3.287 2.75 5.952 6.146 5.952 1.438 0 2.766-.484 3.812-1.29l35.814-22.737 35.812 22.737c1.05.806 2.37 1.29 3.812 1.29 3.393 0 6.143-2.665 6.143-5.952 0-.98-.25-1.906-.688-2.723l-12.063-37.495 33.806-23.9c1.687-1.06 2.81-2.9 2.81-4.997"/></symbol><symbol viewBox="0 0 20 20" id="time"><title/><path d="M10 0C4.5 0 0 4.5 0 10s4.5 10 10 10 10-4.5 10-10S15.5 0 10 0zm0 18c-4.4 0-8-3.6-8-8s3.6-8 8-8 8 3.6 8 8-3.6 8-8 8zm.5-13H9v6l5.2 3.2.8-1.3-4.5-2.7V5z" fill="#000" fill-opacity=".9" fill-rule="evenodd"/></symbol></svg>