<?xml version="1.0" ?><!DOCTYPE svg  PUBLIC '-//W3C//DTD SVG 1.1//EN'  'http://www.w3.org/Graphics/SVG/1.1/DTD/svg11.dtd'><svg xmlns="http://www.w3.org/2000/svg" xmlns:xlink="http://www.w3.org/1999/xlink"><symbol viewBox="0 0 512 512" id="back"><path d="M352 128.4L319.7 96 160 256l159.7 160 32.3-32.4L224.7 256"/></symbol><symbol viewBox="0 0 512 512" id="calendar"><path d="M448.9 64H416v40.7c0 22.5-23.2 39.3-47.2 39.3S320 127.2 320 104.7V64H192v40.7c0 22.5-24 39.3-48 39.3s-48-16.8-48-39.3V64H63.1C45.9 64 32 77.3 32 93.4v357.5C32 467 45.9 480 63.1 480h385.8c17.2 0 31.1-13 31.1-29.2V93.4c0-16.1-13.9-29.4-31.1-29.4zM432 419.9c0 6.6-5.8 12-12.8 12l-326.5.1c-7-.3-12.7-5.6-12.7-12.2V188.3c0-6.9 5.9-12.3 13.3-12.3h325.5c7.3 0 13.2 5.3 13.2 12.1v231.8z"/><path d="M176 96c0 17.7-14.3 32-32 32s-32-14.3-32-32V64c0-17.7 14.3-32 32-32s32 14.3 32 32v32zM400 96c0 17.7-14.3 32-32 32s-32-14.3-32-32V64c0-17.7 14.3-32 32-32s32 14.3 32 32v32z"/></symbol><symbol viewBox="0 0 32 32" id="close"><path d="M4 8l4-4 8 8 8-8 4 4-8 8 8 8-4 4-8-8-8 8-4-4 8-8z"/></symbol><symbol viewBox="0 0 50 50" id="down"><path fill="none" d="M0 0h50v50H0z"/><path d="M47.25 15l-2.086-2.086L25 33.078 4.836 12.914 2.75 15 25 37.25"/></symbol><symbol viewBox="0 0 48 48" id="left"><path d="M30.83 32.67l-9.17-9.17 9.17-9.17L28 11.5l-12 12 12 12z"/><path d="M0-.5h48v48H0z" fill="none"/></symbol><symbol viewBox="0 0 48 48" id="location"><path d="M24 4c-7.73 0-14 6.27-14 14 0 10.5 14 26 14 26s14-15.5 14-26c0-7.73-6.27-14-14-14zm0 19c-2.76 0-5-2.24-5-5s2.24-5 5-5 5 2.24 5 5-2.24 5-5 5z"/><path d="M0 0h48v48H0z" fill="none"/></symbol><symbol viewBox="0 0 48 48" id="right"><path d="M17.17 32.92l9.17-9.17-9.17-9.17L20 11.75l12 12-12 12z"/><path d="M0-.25h48v48H0z" fill="none"/></symbol><symbol viewBox="0 0 32 32" id="search"><path d="M12 0A12 12 0 0 0 0 12a12 12 0 0 0 12 12 12 12 0 0 0 6.5-1.75L28 32l4-4-9.75-9.5A12 12 0 0 0 24 12 12 12 0 0 0 12 0m0 4a8 8 0 0 1 0 16 8 8 0 0 1 0-16"/></symbol><symbol viewBox="-1.23 -8.789 141.732 141.732" id="star"><path fill="gold" d="M139.273 49.088c0-3.284-2.75-5.95-6.146-5.95-.22 0-.434.013-.646.032l-42.444-1-14.5-37.855C74.806 1.825 72.443 0 69.636 0c-2.808 0-5.167 1.824-5.9 4.315L49.23 42.17l-42.443 1c-.214-.02-.43-.03-.647-.03C2.75 43.135 0 45.8 0 49.087c0 2.1 1.12 3.938 2.812 4.997l33.807 23.9-12.064 37.494c-.438.812-.688 1.74-.688 2.722 0 3.287 2.75 5.952 6.146 5.952 1.438 0 2.766-.484 3.812-1.29l35.814-22.737 35.812 22.737c1.05.806 2.37 1.29 3.812 1.29 3.393 0 6.143-2.665 6.143-5.952 0-.98-.25-1.906-.688-2.723l-12.063-37.495 33.806-23.9c1.687-1.06 2.81-2.9 2.81-4.997"/></symbol><symbol viewBox="0 0 20 20" id="time"><title/><path d="M10 0C4.5 0 0 4.5 0 10s4.5 10 10 10 10-4.5 10-10S15.5 0 10 0zm0 18c-4.4 0-8-3.6-8-8s3.6-8 8-8 8 3.6 8 8-3.6 8-8 8zm.5-13H9v6l5.2 3.2.8-1.3-4.5-2.7V5z" fill="#000" fill-opacity=".9" fill-rule="evenodd"/></symbol></svg>